<?xml version="1.0" encoding="UTF-8"?>
<svg width="200mm" height="200mm" version="1.2" baseProfile="tiny-ps" viewBox="0 0 708.66 708.66" xmlns="http://www.w3.org/2000/svg">
 <g>
  <text x="217.14285" y="775.21936" fill="#000000" font-family="sans-serif" letter-spacing="0px" stroke-width="1px" word-spacing="0px" style="line-height:0%" xml:space="preserve"><tspan x="217.14285" y="775.21936" font-size="180px" style="line-height:1.25"> </tspan></text>
<title>di hans mayer</title>
  <g fill-rule="evenodd" stroke="#000">
   <path d="m374.21 529.5 221.83-476.36 1.0102 476.36z" fill="#ff0" stroke-width="1.0977px"/>
   <path d="m405.72 55.218-200 471.43-140-274.23-0.3466-197.2z" fill="#0f0" stroke-width=".99699px"/>
   <path d="m64.65 271.51 130.31 253.55-131.32 1.0102z" fill="#0f0" stroke-width="1px"/>
  </g>
 </g>
 <g>
  <rect x="130.69" y="105.12" width="56.821" height="379.75" fill="#00f" fill-rule="evenodd" stroke-width=".9375"/>
  <rect x="471.61" y="105.12" width="60.609" height="377.86" fill="#00f" fill-rule="evenodd" stroke-width=".9375"/>
  <path d="m309.67 379.75-150.58-272.74 53.98-0.94702 120.27 209.29 117.43-209.29h49.245l-152.47 273.69z" fill="none" stroke="#000" stroke-width=".9375px"/>
  <path transform="scale(.9375)" d="m265.63 285.59-65.306-118.29v-52.173l9.3439-0.68795c5.1392-0.37837 11.084-0.53443 13.211-0.34681l3.8668 0.34114 64.311 111.9c48.434 84.277 64.562 111.56 65.329 110.5 0.55977-0.7713 28.974-51.239 63.142-112.15l62.124-110.75 20.708-0.012-0.0533 26.517-0.0533 26.516-131.84 236.38-39.476 0.54677-65.306-118.29z" fill="#00f" stroke-width="1.0102"/>
 </g>
</svg>
