<?xml version="1.0" encoding="UTF-8"?>
<svg width="100mm" height="100mm" version="1.2" baseProfile="tiny-ps" viewBox="0 0 100 100" xmlns="http://www.w3.org/2000/svg">
 <title>di. hans mayer</title>
 <g>
  <rect width="100.09" height="100.09" fill="#f4e3d7" stroke-width=".26458"/>
 </g>
 <g>
  <path d="m0 0h71.495l-53.053 100.09-18.575-0.13364z" fill="none" stroke="#000" stroke-width=".26458px"/>
  <path d="m99.825 0h-5.0781l-49.846 100.09 54.924-0.26727z" fill="#ff0" stroke="#000" stroke-width=".26458px"/>
  <path transform="scale(.26458)" d="m24.602 377.29-24.117-0.1411v-183.51c0-100.93 0.14768-185.59 0.32817-188.14l0.32817-4.6233h133.77c73.573 0 133.77 0.066845 133.77 0.14854 0 0.081699-44.869 84.802-99.71 188.27l-99.71 188.12-10.271 0.01c-5.6488 5e-3 -21.123-0.0536-34.388-0.13117z" fill="#0f0" stroke-width=".50508"/>
 </g>
 <g>
  <path transform="scale(.26458)" d="m25.551 352.03c-0.15207-1.0417-0.4278-75.368-0.61272-165.17l-0.33624-163.28 29.484 0.28167c16.216 0.15492 30.854 0.39921 32.529 0.54286l3.0454 0.26119 6.6126 12.22c3.6369 6.7209 23.945 44.608 45.128 84.193 45.906 85.782 47.041 87.883 47.477 87.883 0.47962 0 11.536-21.482 76.949-149.5l17.936-35.103 2.4333-0.35435c2.3491-0.34209 62.378-1.456 62.692-1.1634 0.0853 0.07936 0.36451 73.412 0.62048 162.96 0.25598 89.549 0.60978 163.64 0.78623 164.66l0.32082 1.8406-5.7395 0.29179c-3.1567 0.16048-13.24 0.419-22.407 0.57448-9.1671 0.15549-17.433 0.4195-18.369 0.5867l-1.7014 0.30399 0.29083-4.4869c0.24925-3.8455 0.62025-252.63 0.40908-274.32-0.0564-5.7895-0.23176-7.7007-0.70631-7.6954-0.34724 0.0039-3.6765 5.7428-7.3984 12.753-6.5036 12.25-61.587 116.64-84.883 160.86l-11.241 21.339h-27.008l-16.069-31.188c-62.721-121.73-85.093-164.77-85.654-164.78-0.77263-0.00948-0.9615 30.187-0.96272 153.92l-0.0013 133.47h-43.348z" fill="#00f" stroke-width=".50508"/>
 </g>
</svg>
